<svg width="203" height="50" viewBox="0 0 203 50" fill="none" xmlns="http://www.w3.org/2000/svg">
<g filter="url(#filter0_d_51048_2968)">
<g filter="url(#filter1_i_51048_2968)">
<path d="M27.1758 12.5039C27.0195 10.9284 26.349 9.70443 25.1641 8.83203C23.9792 7.95963 22.3711 7.52344 20.3398 7.52344C18.9596 7.52344 17.7943 7.71875 16.8438 8.10937C15.8932 8.48698 15.1641 9.01432 14.6563 9.6914C14.1615 10.3685 13.9141 11.1367 13.9141 11.9961C13.888 12.7122 14.0378 13.3372 14.3633 13.8711C14.7018 14.4049 15.1641 14.8672 15.75 15.2578C16.3359 15.6354 17.013 15.9674 17.7812 16.2539C18.5495 16.5273 19.3698 16.7617 20.2422 16.957L23.8359 17.8164C25.5807 18.207 27.1823 18.7279 28.6406 19.3789C30.099 20.0299 31.362 20.8307 32.4297 21.7812C33.4974 22.7318 34.3242 23.8516 34.9102 25.1406C35.5091 26.4297 35.8151 27.9076 35.8281 29.5742C35.8151 32.0221 35.1901 34.1445 33.9531 35.9414C32.7292 37.7253 30.9583 39.112 28.6406 40.1016C26.3359 41.0781 23.556 41.5664 20.3008 41.5664C17.0716 41.5664 14.2591 41.0716 11.8633 40.082C9.48047 39.0924 7.61849 37.6276 6.27734 35.6875C4.94922 33.7344 4.2526 31.319 4.1875 28.4414H12.3711C12.4622 29.7826 12.8464 30.9023 13.5234 31.8008C14.2135 32.6862 15.1315 33.3568 16.2773 33.8125C17.4362 34.2552 18.7448 34.4766 20.2031 34.4766C21.6354 34.4766 22.8789 34.2682 23.9336 33.8516C25.0013 33.4349 25.8281 32.8555 26.4141 32.1133C27 31.3711 27.293 30.5182 27.293 29.5547C27.293 28.6562 27.026 27.901 26.4922 27.2891C25.9714 26.6771 25.2031 26.1562 24.1875 25.7266C23.1849 25.2969 21.9544 24.9062 20.4961 24.5547L16.1406 23.4609C12.7682 22.6406 10.1055 21.3581 8.15234 19.6133C6.19922 17.8685 5.22917 15.5182 5.24219 12.5625C5.22917 10.1406 5.8737 8.02474 7.17578 6.21484C8.49089 4.40495 10.2943 2.99219 12.5859 1.97656C14.8776 0.960937 17.4818 0.453125 20.3984 0.453125C23.3672 0.453125 25.9583 0.960937 28.1719 1.97656C30.3984 2.99219 32.1302 4.40495 33.3672 6.21484C34.6042 8.02474 35.2422 10.1211 35.2812 12.5039H27.1758ZM47.498 41H38.4355L52.2441 1H63.1426L76.9316 41H67.8691L57.8496 10.1406H57.5371L47.498 41ZM81.7461 41V1H90.2031V34.0273H107.352V41H81.7461ZM120.867 41H111.805L125.613 1H136.512L150.301 41H141.238L131.219 10.1406H130.906L120.867 41ZM155.115 1H165.545L176.561 27.875H177.029L188.045 1H198.475V31H190.271V14.9648H189.939L179.588 35.8047H174.002L163.65 14.8672H163.318V41H155.115V1Z" fill="#36CFC9"/>
</g>
</g>
<defs>
<filter id="filter0_d_51048_2968" x="0.1875" y="0.453125" width="202.288" height="49.1133" filterUnits="userSpaceOnUse" color-interpolation-filters="sRGB">
<feFlood flood-opacity="0" result="BackgroundImageFix"/>
<feColorMatrix in="SourceAlpha" type="matrix" values="0 0 0 0 0 0 0 0 0 0 0 0 0 0 0 0 0 0 127 0" result="hardAlpha"/>
<feOffset dy="4"/>
<feGaussianBlur stdDeviation="2"/>
<feComposite in2="hardAlpha" operator="out"/>
<feColorMatrix type="matrix" values="0 0 0 0 0 0 0 0 0 0 0 0 0 0 0 0 0 0 0.25 0"/>
<feBlend mode="normal" in2="BackgroundImageFix" result="effect1_dropShadow_51048_2968"/>
<feBlend mode="normal" in="SourceGraphic" in2="effect1_dropShadow_51048_2968" result="shape"/>
</filter>
<filter id="filter1_i_51048_2968" x="4.1875" y="0.453125" width="194.288" height="45.1133" filterUnits="userSpaceOnUse" color-interpolation-filters="sRGB">
<feFlood flood-opacity="0" result="BackgroundImageFix"/>
<feBlend mode="normal" in="SourceGraphic" in2="BackgroundImageFix" result="shape"/>
<feColorMatrix in="SourceAlpha" type="matrix" values="0 0 0 0 0 0 0 0 0 0 0 0 0 0 0 0 0 0 127 0" result="hardAlpha"/>
<feOffset dy="4"/>
<feGaussianBlur stdDeviation="2"/>
<feComposite in2="hardAlpha" operator="arithmetic" k2="-1" k3="1"/>
<feColorMatrix type="matrix" values="0 0 0 0 0 0 0 0 0 0 0 0 0 0 0 0 0 0 0.25 0"/>
<feBlend mode="normal" in2="shape" result="effect1_innerShadow_51048_2968"/>
</filter>
</defs>
</svg>
