<?xml version="1.0" encoding="UTF-8" standalone="no" ?>
<!DOCTYPE svg PUBLIC "-//W3C//DTD SVG 1.1//EN" "http://www.w3.org/Graphics/SVG/1.1/DTD/svg11.dtd">
<svg xmlns="http://www.w3.org/2000/svg" xmlns:xlink="http://www.w3.org/1999/xlink" version="1.1" width="120" height="120" viewBox="0 0 120 120" xml:space="preserve">
<desc>Created with Fabric.js 5.3.0</desc>
<defs>
</defs>
<g transform="matrix(1.2992738589 0 0 1.2992738589 58.5169008831 58.5169008831)" id="enSUVVXFMxqEf3U4J00J1"  >
<g style="" vector-effect="non-scaling-stroke"   >
		<g transform="matrix(1 0 0 1 0 0)" style="" id="DIb4Tob4JEtcbSrTcNllz">
		<text xml:space="preserve" font-family="Open Sans" font-size="3" font-style="normal" font-weight="normal" line-height="1" style="stroke: none; stroke-width: 1; stroke-dasharray: none; stroke-linecap: butt; stroke-dashoffset: 0; stroke-linejoin: miter; stroke-miterlimit: 4; fill: rgb(0,0,0); fill-rule: nonzero; opacity: 1; white-space: pre;"><tspan x="-0.3786621094" y="0.94242"/></text>
        </g>		<g transform="matrix(2.0557892629 0 0 2.0557892629 0.0360576923 0.0360576923)" id="q10cHtn0F2kV-oy_vxPVg"  >
<path style="stroke: none; stroke-width: 1; stroke-dasharray: none; stroke-linecap: butt; stroke-dashoffset: 0; stroke-linejoin: miter; stroke-miterlimit: 4; fill: none; fill-rule: nonzero; opacity: 1;" vector-effect="non-scaling-stroke"  transform=" translate(-12, -12)" d="M 24 0 L 24 24 L 0 24 L 0 0 L 24 0 Z M 12.5934901 23.257841 L 12.5819402 23.2595131 L 12.5108777 23.2950439 L 12.4918791 23.2987469 L 12.4918791 23.2987469 L 12.4767152 23.2950439 L 12.4056548 23.2595131 C 12.3958229 23.2563662 12.3870493 23.2590235 12.3821421 23.2649074 L 12.3780323 23.275831 L 12.360941 23.7031097 L 12.3658947 23.7234994 L 12.3769048 23.7357139 L 12.4804777 23.8096931 L 12.4953491 23.8136134 L 12.4953491 23.8136134 L 12.5071152 23.8096931 L 12.6106902 23.7357139 L 12.6232938 23.7196733 L 12.6232938 23.7196733 L 12.6266527 23.7031097 L 12.609561 23.275831 C 12.6075724 23.2657013 12.6010112 23.2592993 12.5934901 23.257841 L 12.5934901 23.257841 Z M 12.8583906 23.1452862 L 12.8445485 23.1473072 L 12.6598443 23.2396597 L 12.6498822 23.2499052 L 12.6498822 23.2499052 L 12.6471943 23.2611114 L 12.6650943 23.6906389 L 12.6699349 23.7034178 L 12.6699349 23.7034178 L 12.678386 23.7104931 L 12.8793402 23.8032389 C 12.8914285 23.8068999 12.9022333 23.8029875 12.9078286 23.7952264 L 12.9118235 23.7811639 L 12.8776777 23.1665331 C 12.8752882 23.1545897 12.8674102 23.1470016 12.8583906 23.1452862 L 12.8583906 23.1452862 Z M 12.1430473 23.1473072 C 12.1332178 23.1423925 12.1221763 23.1452606 12.1156365 23.1525954 L 12.1099173 23.1665331 L 12.0757714 23.7811639 C 12.0751323 23.7926639 12.0828099 23.8018602 12.0926481 23.8045676 L 12.108256 23.8032389 L 12.3092106 23.7104931 L 12.3186497 23.7024347 L 12.3186497 23.7024347 L 12.3225043 23.6906389 L 12.340401 23.2611114 L 12.337245 23.2485176 L 12.337245 23.2485176 L 12.3277531 23.2396597 L 12.1430473 23.1473072 Z" stroke-linecap="round" />
</g>
		<g transform="matrix(2.0557892629 0 0 2.0557892629 0.0360576923 0.0360576923)" id="r4uSOSlfqWvTbMXYUxC59"  >
<path style="stroke: none; stroke-width: 1; stroke-dasharray: none; stroke-linecap: butt; stroke-dashoffset: 0; stroke-linejoin: miter; stroke-miterlimit: 4; fill: #36CFC9; fill-rule: nonzero; opacity: 1;" vector-effect="non-scaling-stroke"  transform=" translate(-12, -12)" d="M 12 2.5 C 12.7796706 2.5 13.4204457 3.09488554 13.4931332 3.85553954 L 13.5 4 L 13.5 20 C 13.5 20.8284 12.8284 21.5 12 21.5 C 11.2203294 21.5 10.5795543 20.9050879 10.5068668 20.1444558 L 10.5 20 L 10.5 4 C 10.5 3.17157 11.1716 2.5 12 2.5 Z M 8 5.5 C 8.82843 5.5 9.5 6.17157 9.5 7 L 9.5 17 C 9.5 17.8284 8.82843 18.5 8 18.5 C 7.17157 18.5 6.5 17.8284 6.5 17 L 6.5 7 C 6.5 6.17157 7.17157 5.5 8 5.5 Z M 16 5.5 C 16.8284 5.5 17.5 6.17157 17.5 7 L 17.5 17 C 17.5 17.8284 16.8284 18.5 16 18.5 C 15.1716 18.5 14.5 17.8284 14.5 17 L 14.5 7 C 14.5 6.17157 15.1716 5.5 16 5.5 Z M 4 8.5 C 4.82843 8.5 5.5 9.17157 5.5 10 L 5.5 14 C 5.5 14.8284 4.82843 15.5 4 15.5 C 3.17157 15.5 2.5 14.8284 2.5 14 L 2.5 10 C 2.5 9.17157 3.17157 8.5 4 8.5 Z M 20 8.5 C 20.7796706 8.5 21.4204457 9.09488554 21.4931332 9.85553954 L 21.5 10 L 21.5 14 C 21.5 14.8284 20.8284 15.5 20 15.5 C 19.2203294 15.5 18.5795543 14.9050879 18.5068668 14.1444558 L 18.5 14 L 18.5 10 C 18.5 9.17157 19.1716 8.5 20 8.5 Z" stroke-linecap="round" />
</g>
</g>
</g>
</svg>