<?xml version="1.0" encoding="UTF-8" standalone="no" ?>
<!DOCTYPE svg PUBLIC "-//W3C//DTD SVG 1.1//EN" "http://www.w3.org/Graphics/SVG/1.1/DTD/svg11.dtd">
<svg xmlns="http://www.w3.org/2000/svg" xmlns:xlink="http://www.w3.org/1999/xlink" version="1.1" width="120" height="120" viewBox="0 0 120 120" xml:space="preserve">
<desc>Created with Fabric.js 5.3.0</desc>
<defs>
</defs>
<g transform="matrix(1 0 0 1 70.3937007874 49.8087739033)" style="" id="YNaWd7VIYEYuACqMQXZ0c">
		<text xml:space="preserve" font-family="Open Sans" font-size="3" font-style="normal" font-weight="normal" line-height="1" style="stroke: none; stroke-width: 1; stroke-dasharray: none; stroke-linecap: butt; stroke-dashoffset: 0; stroke-linejoin: miter; stroke-miterlimit: 4; fill: rgb(0,0,0); fill-rule: nonzero; opacity: 1; white-space: pre;"><tspan x="-2.98828125" y="-0.35086125"/></text>
</g><g transform="matrix(0.7853816106 0 0 0.7853816106 62.3341346154 60.3341346154)" id="N8OzQOtc5sStpRyv4qyX_"  >

<g style="" vector-effect="non-scaling-stroke"   >
		<g transform="matrix(0.125 0 0 0.125 -0.0000624951 -21.3333125)" id="TxsF2_JxVqrRTbyGIsLBF"  >
<path style="stroke: none; stroke-width: 1; stroke-dasharray: none; stroke-linecap: butt; stroke-dashoffset: 0; stroke-linejoin: miter; stroke-miterlimit: 4; fill: #36CFC9; fill-rule: nonzero; opacity: 1;" vector-effect="non-scaling-stroke"  transform=" translate(-255.9995000393, -85.3335)" d="M 85.333 170.667 C 124.99199999999999 170.667 158.101 143.382 167.637 106.667 L 490.666 106.667 C 502.463 106.667 511.999 97.131 511.999 85.334 C 512 73.536 502.464 64 490.667 64 L 167.637 64 C 158.101 27.284999999999997 124.99199999999999 0 85.333 0 C 38.272 0 0 38.272 0 85.333 C 0 132.394 38.272 170.667 85.333 170.667 z" stroke-linecap="round" />
</g>
		<g transform="matrix(0.125 0 0 0.125 0 21.3333125)" id="gpjcX---qOB4cs1ldyuj4"  >
<path style="stroke: none; stroke-width: 1; stroke-dasharray: none; stroke-linecap: butt; stroke-dashoffset: 0; stroke-linejoin: miter; stroke-miterlimit: 4; fill: #36CFC9; fill-rule: nonzero; opacity: 1;" vector-effect="non-scaling-stroke"  transform=" translate(-256, -426.6665)" d="M 426.667 341.333 C 387.008 341.333 353.899 368.61800000000005 344.36299999999994 405.333 L 21.333 405.333 C 9.536 405.333 0 414.869 0 426.667 C 0 438.4649999999999 9.536 448 21.333 448 L 344.36199999999997 448 C 353.89799999999997 484.71500000000003 387.00699999999995 512 426.66599999999994 512 C 473.728 512 512 473.728 512 426.667 C 512 379.60599999999994 473.728 341.333 426.667 341.333 z" stroke-linecap="round" />
</g>
		<g transform="matrix(0.125 0 0 0.125 0 0)" id="fMur_apAKPAAUTsB8pJs-"  >
<path style="stroke: none; stroke-width: 1; stroke-dasharray: none; stroke-linecap: butt; stroke-dashoffset: 0; stroke-linejoin: miter; stroke-miterlimit: 4; fill: #36CFC9; fill-rule: nonzero; opacity: 1;" vector-effect="non-scaling-stroke"  transform=" translate(-256, -256)" d="M 490.667 234.667 L 338.304 234.667 C 328.768 197.952 295.659 170.667 255.99999999999997 170.667 C 216.34099999999995 170.667 183.23199999999997 197.952 173.69599999999997 234.667 L 21.333 234.667 C 9.536 234.667 0 244.203 0 256 C 0 267.797 9.536 277.33299999999997 21.333 277.33299999999997 L 173.696 277.33299999999997 C 183.232 314.048 216.341 341.33299999999997 256 341.33299999999997 C 295.659 341.33299999999997 328.76800000000003 314.04799999999994 338.304 277.33299999999997 L 490.667 277.33299999999997 C 502.464 277.33299999999997 512 267.79699999999997 512 255.99999999999997 C 512 244.20299999999997 502.464 234.667 490.667 234.667 z" stroke-linecap="round" />
</g>
</g>
</g>
</svg>