<?xml version="1.0" encoding="UTF-8" standalone="no" ?>
<!DOCTYPE svg PUBLIC "-//W3C//DTD SVG 1.1//EN" "http://www.w3.org/Graphics/SVG/1.1/DTD/svg11.dtd">
<svg xmlns="http://www.w3.org/2000/svg" xmlns:xlink="http://www.w3.org/1999/xlink" version="1.1" width="120" height="120" viewBox="0 0 120 120" xml:space="preserve">
<desc>Created with Fabric.js 5.3.0</desc>
<defs>
</defs>
<g transform="matrix(1 0 0 1 70.3937007874 49.8087739033)" style="" id="YNaWd7VIYEYuACqMQXZ0c">
		<text xml:space="preserve" font-family="Open Sans" font-size="3" font-style="normal" font-weight="normal" line-height="1" style="stroke: none; stroke-width: 1; stroke-dasharray: none; stroke-linecap: butt; stroke-dashoffset: 0; stroke-linejoin: miter; stroke-miterlimit: 4; fill: rgb(0,0,0); fill-rule: nonzero; opacity: 1; white-space: pre;"><tspan x="-2.98828125" y="-0.35086125"/></text>
</g><g transform="matrix(1 0 0 1 60 60)" id="GDr-LQpIOraxPDvln-WAH"  >
<g style="" vector-effect="non-scaling-stroke"   >
		<g transform="matrix(1 0 0 1 -14.5520000565 12.99555)" id="qLae1PoMgBjjmETHWlM52"  >
<path style="stroke: none; stroke-width: 1; stroke-dasharray: none; stroke-linecap: butt; stroke-dashoffset: 0; stroke-linejoin: miter; stroke-miterlimit: 4; fill: #36CFC9; fill-rule: nonzero; opacity: 1;" vector-effect="non-scaling-stroke"  transform=" translate(-15.4479999435, -42.99555)" d="M 13.2779 45.0583 C 8.4257 40.6896 5.45885 35.0285 4.77002 28.9218 C 2.19119 31.91 0.792907 35.5752 0.799353 39.4217 C 0.803689 41.9236 1.41799 44.4105 2.58201 46.6594 L 0.181773 53.0625 C -0.230845 54.1633 0.070562 55.3584 0.968454 56.1816 C 1.60033 56.7608 2.43342 57.0693 3.29018 57.0693 C 3.65065 57.0693 4.01534 57.0148 4.371 56.9027 L 11.3564 54.7024 C 13.8098 55.7694 16.5228 56.3325 19.2521 56.3365 C 23.5305 56.3418 27.6024 55.0111 30.896 52.5587 C 24.2735 52.0094 18.0957 49.3959 13.2779 45.0583 Z" stroke-linecap="round" />
</g>
		<g transform="matrix(1 0 0 1 4.0913012638 -3.3209506759)" id="pN4Si4DEcbcuThzQL8ZWM"  >
<path style="stroke: none; stroke-width: 1; stroke-dasharray: none; stroke-linecap: butt; stroke-dashoffset: 0; stroke-linejoin: miter; stroke-miterlimit: 4; fill: #36CFC9; fill-rule: nonzero; opacity: 1;" vector-effect="non-scaling-stroke"  transform=" translate(-34.0913012638, -26.6790493241)" d="M 59.783 45.6661 L 56.2982 36.3696 C 57.9779 33.2219 58.8656 29.7213 58.8716 26.199 C 58.8819 20.0745 56.297 14.2837 51.5928 9.8934 C 46.8878 5.50209 40.618 3.03031 33.9383 2.93331 C 27.0119 2.83287 20.5014 5.24793 15.6069 9.73452 C 10.7123 14.2212 8.0772 20.1891 8.18689 26.5386 C 8.29271 32.6615 10.9892 38.4089 15.7795 42.7219 C 20.5596 47.0257 26.8607 49.3945 33.5277 49.3943 C 33.5408 49.3943 33.5546 49.3943 33.5675 49.3943 C 37.4101 49.3889 41.229 48.5751 44.6628 47.0353 L 54.8047 50.2299 C 55.2273 50.363 55.6607 50.4278 56.089 50.4278 C 57.1071 50.4278 58.0971 50.0613 58.8482 49.3727 C 59.9152 48.3946 60.2733 46.9744 59.783 45.6661 Z M 35.9761 34.2242 L 22.8894 34.2242 C 21.9031 34.2242 21.1037 33.4912 21.1037 32.5873 C 21.1037 31.6832 21.9032 30.9504 22.8894 30.9504 L 35.9759 30.9504 C 36.9622 30.9504 37.7617 31.6833 37.7617 32.5873 C 37.7617 33.4914 36.9623 34.2242 35.9761 34.2242 Z M 44.1661 27.4921 L 22.8895 27.4921 C 21.9032 27.4921 21.1038 26.7592 21.1038 25.8552 C 21.1038 24.9513 21.9033 24.2184 22.8895 24.2184 L 44.1661 24.2184 C 45.1523 24.2184 45.9518 24.9513 45.9518 25.8552 C 45.9518 26.7592 45.1523 27.4921 44.1661 27.4921 Z M 44.1661 20.7599 L 22.8895 20.7599 C 21.9032 20.7599 21.1038 20.027 21.1038 19.123 C 21.1038 18.2189 21.9033 17.4861 22.8895 17.4861 L 44.1661 17.4861 C 45.1523 17.4861 45.9518 18.219 45.9518 19.123 C 45.9518 20.027 45.1523 20.7599 44.1661 20.7599 Z" stroke-linecap="round" />
</g>
</g>
</g>
</svg>