<?xml version="1.0" encoding="UTF-8" standalone="no" ?>
<!DOCTYPE svg PUBLIC "-//W3C//DTD SVG 1.1//EN" "http://www.w3.org/Graphics/SVG/1.1/DTD/svg11.dtd">
<svg xmlns="http://www.w3.org/2000/svg" xmlns:xlink="http://www.w3.org/1999/xlink" version="1.1" width="120" height="120" viewBox="0 0 120 120" xml:space="preserve">
<desc>Created with Fabric.js 5.3.0</desc>
<defs>
</defs>
<g transform="matrix(1 0 0 1 70.3937007874 49.8087739033)" style="" id="YNaWd7VIYEYuACqMQXZ0c">
		<text xml:space="preserve" font-family="Open Sans" font-size="3" font-style="normal" font-weight="normal" line-height="1" style="stroke: none; stroke-width: 1; stroke-dasharray: none; stroke-linecap: butt; stroke-dashoffset: 0; stroke-linejoin: miter; stroke-miterlimit: 4; fill: rgb(0,0,0); fill-rule: nonzero; opacity: 1; white-space: pre;"><tspan x="-2.98828125" y="-0.35086125"/></text>
</g><g transform="matrix(1 0 0 1 60 60)" id="B95zx_I_vOtaDbQ8soiNK"  >
<path style="stroke: none; stroke-width: 1; stroke-dasharray: none; stroke-linecap: butt; stroke-dashoffset: 0; stroke-linejoin: miter; stroke-miterlimit: 4; fill: #36CFC9; fill-rule: nonzero; opacity: 1;" vector-effect="non-scaling-stroke"  transform=" translate(-33.1500040732, -26.67995)" d="M 63.6719 28.1635 C 62.4073 28.1635 61.3858 29.0391 61.0453 30.1578 L 51.317 30.1578 L 51.317 22.5697 L 56.9594 22.5697 C 57.3485 22.5697 57.6404 22.2779 57.6404 21.8887 L 57.6404 12.4036 C 58.8078 12.1118 59.6347 11.0417 59.6347 9.77697 C 59.6347 8.26908 58.4186 7.10168 56.9594 7.10168 C 55.4515 7.10168 54.2841 8.31772 54.2841 9.77697 C 54.2841 11.0417 55.1596 12.0631 56.2784 12.4036 L 56.2784 21.2078 L 51.317 21.2078 L 51.317 17.9001 C 51.317 14.9816 48.9822 12.6468 46.0637 12.6468 L 43.7775 12.6468 L 43.7775 10.6039 C 43.7775 4.76688 39.0106 0 33.1736 0 C 27.3366 0 22.5697 4.76688 22.5697 10.6039 L 22.5697 12.6468 L 20.2836 12.6468 C 17.3651 12.6468 15.0303 14.9816 15.0303 17.9001 L 15.0303 21.2078 L 10.0688 21.2078 L 10.0688 12.4036 C 11.2362 12.1118 12.0631 11.0417 12.0631 9.77697 C 12.0631 8.26908 10.8471 7.10168 9.38784 7.10168 C 7.87995 7.10168 6.71255 8.31772 6.71255 9.77697 C 6.71255 11.0417 7.5881 12.0631 8.70686 12.4036 L 8.70686 21.8887 C 8.70686 22.2779 8.99871 22.5697 9.38784 22.5697 L 15.0303 22.5697 L 15.0303 30.1578 L 5.30194 30.1578 C 5.01009 28.9904 3.93998 28.1635 2.67529 28.1635 C 1.1674 28.1635 0 29.3796 0 30.8388 C 0 32.3467 1.21604 33.5627 2.67529 33.5627 C 3.93998 33.5627 4.96145 32.6872 5.30194 31.5684 L 15.0303 31.5684 L 15.0303 38.5728 L 9.38784 38.5728 C 8.99871 38.5728 8.70686 38.8647 8.70686 39.2538 L 8.70686 48.0579 C 7.53946 48.3498 6.71255 49.4199 6.71255 50.6846 C 6.71255 52.1925 7.92859 53.3599 9.38784 53.3599 C 10.8957 53.3599 12.0631 52.1438 12.0631 50.6846 C 12.0631 49.4199 11.1876 48.3984 10.0688 48.0579 L 10.0688 39.9348 L 15.0303 39.9348 L 15.0303 43.6315 C 15.0303 46.55 17.3651 48.8848 20.2836 48.8848 L 46.015 48.8848 C 48.9335 48.8848 51.2683 46.55 51.2683 43.6315 L 51.2683 39.9348 L 56.2298 39.9348 L 56.2298 48.0579 C 55.0624 48.3498 54.2355 49.4199 54.2355 50.6846 C 54.2355 52.1925 55.4515 53.3599 56.9108 53.3599 C 58.4186 53.3599 59.586 52.1438 59.586 50.6846 C 59.586 49.4199 58.7105 48.3984 57.5917 48.0579 L 57.5917 39.2538 C 57.5917 38.8647 57.2999 38.5728 56.9108 38.5728 L 51.2683 38.5728 L 51.2683 31.5198 L 60.9967 31.5198 C 61.2885 32.6872 62.3586 33.5141 63.6233 33.5141 C 65.1312 33.5141 66.2986 32.298 66.2986 30.8388 C 66.3472 29.3796 65.1312 28.1635 63.6719 28.1635 Z M 35.2166 31.5684 C 34.6815 31.9576 34.4383 32.5899 34.5356 33.2222 L 35.0706 35.7516 C 35.2166 36.4812 34.6329 37.2109 33.9032 37.2109 L 32.4926 37.2109 C 31.7144 37.2109 31.1307 36.5299 31.3252 35.7516 L 31.8603 33.2222 C 32.0062 32.5899 31.7144 31.9576 31.1793 31.5684 C 30.401 30.9361 29.866 30.0119 29.866 28.8931 C 29.866 27.0448 31.3739 25.5369 33.2223 25.5369 C 35.0706 25.5369 36.5785 27.0448 36.5785 28.8931 C 36.5299 29.9633 36.0435 30.9361 35.2166 31.5684 Z M 40.3239 12.5982 L 26.0233 12.5982 L 26.0233 10.5552 C 26.0233 6.61526 29.2336 3.40491 33.1736 3.40491 C 37.1136 3.40491 40.3239 6.61526 40.3239 10.5552 L 40.3239 12.5982 Z" stroke-linecap="round" />
</g>
</svg>