<svg width="120" height="120" viewBox="0 0 120 120" fill="none" xmlns="http://www.w3.org/2000/svg">
<path fill-rule="evenodd" clip-rule="evenodd" d="M54.1875 49.0625C54.1875 46.9905 55.0106 45.0034 56.4757 43.5382C57.9409 42.0731 59.928 41.25 62 41.25C64.072 41.25 66.0591 42.0731 67.5243 43.5382C68.9894 45.0034 69.8125 46.9905 69.8125 49.0625C69.8125 51.1345 68.9894 53.1216 67.5243 54.5868C66.0591 56.0519 64.072 56.875 62 56.875C59.928 56.875 57.9409 56.0519 56.4757 54.5868C55.0106 53.1216 54.1875 51.1345 54.1875 49.0625ZM69.8125 55.3125C69.8125 53.6549 70.471 52.0652 71.6431 50.8931C72.8152 49.721 74.4049 49.0625 76.0625 49.0625C77.7201 49.0625 79.3098 49.721 80.4819 50.8931C81.654 52.0652 82.3125 53.6549 82.3125 55.3125C82.3125 56.9701 81.654 58.5598 80.4819 59.7319C79.3098 60.904 77.7201 61.5625 76.0625 61.5625C74.4049 61.5625 72.8152 60.904 71.6431 59.7319C70.471 58.5598 69.8125 56.9701 69.8125 55.3125ZM41.6875 55.3125C41.6875 53.6549 42.346 52.0652 43.5181 50.8931C44.6902 49.721 46.2799 49.0625 47.9375 49.0625C49.5951 49.0625 51.1848 49.721 52.3569 50.8931C53.529 52.0652 54.1875 53.6549 54.1875 55.3125C54.1875 56.9701 53.529 58.5598 52.3569 59.7319C51.1848 60.904 49.5951 61.5625 47.9375 61.5625C46.2799 61.5625 44.6902 60.904 43.5181 59.7319C42.346 58.5598 41.6875 56.9701 41.6875 55.3125ZM50.1458 66.4937C51.4166 64.5021 53.1689 62.863 55.2409 61.728C57.3128 60.593 59.6375 59.9987 62 60C63.9788 59.9982 65.9357 60.4143 67.7425 61.2212C69.5493 62.028 71.1654 63.2074 72.4848 64.682C73.8043 66.1567 74.7975 67.8934 75.3993 69.7784C76.0011 71.6635 76.198 73.6544 75.9771 75.6208C75.9501 75.8651 75.8658 76.0996 75.7312 76.3052C75.5965 76.5108 75.4152 76.6818 75.2021 76.8042C71.1845 79.1094 66.632 80.3192 62 80.3125C57.1979 80.3125 52.6875 79.0375 48.7979 76.8042C48.5848 76.6818 48.4035 76.5108 48.2688 76.3052C48.1342 76.0996 48.0499 75.8651 48.0229 75.6208C47.673 72.4263 48.4218 69.2079 50.1458 66.4958V66.4937Z" fill="#36CFC9"/>
<path d="M47.5875 64.6959C45.5328 67.8675 44.5755 71.6257 44.8625 75.3938C43.6115 75.2041 42.381 74.8972 41.1875 74.4771L40.9479 74.3938C40.7341 74.3179 40.547 74.1817 40.409 74.0016C40.2711 73.8215 40.1884 73.6053 40.1708 73.3792L40.15 73.1271C40.0658 72.0812 40.1932 71.0291 40.5246 70.0335C40.8559 69.0379 41.3844 68.1192 42.0786 67.3323C42.7727 66.5454 43.6182 65.9065 44.5647 65.4535C45.5112 65.0005 46.5392 64.7428 47.5875 64.6959ZM79.1375 75.3938C79.4245 71.6257 78.4672 67.8675 76.4125 64.6959C77.4607 64.7428 78.4888 65.0005 79.4352 65.4535C80.3817 65.9065 81.2273 66.5454 81.9214 67.3323C82.6155 68.1192 83.144 69.0379 83.4754 70.0335C83.8067 71.0291 83.9341 72.0812 83.85 73.1271L83.8292 73.3792C83.8112 73.605 83.7283 73.8207 83.5904 74.0004C83.4525 74.1801 83.2655 74.316 83.0521 74.3917L82.8125 74.475C81.6312 74.8917 80.4042 75.2021 79.1375 75.3938Z" fill="#36CFC9"/>
</svg>
