<svg width="120" height="120" viewBox="0 0 120 120" fill="none" xmlns="http://www.w3.org/2000/svg">
<path d="M87 46.5C87 52.8504 75.8056 58 62 58C48.1944 58 37 52.8504 37 46.5C37 40.1496 48.1944 35 62 35C75.8056 35 87 40.1496 87 46.5Z" fill="#36CFC9"/>
<path d="M62 61.8503C69.4583 61.8503 76.4167 60.5091 81.6611 58.1677C83.5912 57.3233 85.3656 56.2567 86.9306 55C86.975 55.2769 87 55.5585 87 55.8423C87 62.0036 75.8056 67 62 67C48.1944 67 37 62.0036 37 55.8423C37 55.5585 37.025 55.2769 37.0694 55C38.6345 56.2567 40.4088 57.3233 42.3389 58.1677C47.5806 60.5091 54.5417 61.8503 62 61.8503Z" fill="#36CFC9"/>
<path d="M62 70.8503C69.4583 70.8503 76.4167 69.5091 81.6611 67.1677C83.5913 66.3233 85.3656 65.2567 86.9306 64C86.975 64.2769 87 64.5585 87 64.8423C87 71.0036 75.8056 76 62 76C48.1944 76 37 71.0036 37 64.8423C37 64.5585 37.025 64.2769 37.0694 64C38.6345 65.2567 40.4088 66.3233 42.3389 67.1677C47.5806 69.5091 54.5417 70.8503 62 70.8503Z" fill="#36CFC9"/>
<path d="M62 79.8503C69.4583 79.8503 76.4167 78.5091 81.6611 76.1677C83.5913 75.3233 85.3656 74.2567 86.9306 73C86.975 73.2769 87 73.5585 87 73.8423C87 80.0036 75.8056 85 62 85C48.1944 85 37 80.0036 37 73.8423C37 73.5585 37.025 73.2769 37.0694 73C38.6345 74.2567 40.4088 75.3233 42.3389 76.1677C47.5806 78.5091 54.5417 79.8503 62 79.8503Z" fill="#36CFC9"/>
</svg>
