<svg width="120" height="120" viewBox="0 0 120 120" fill="#36CFC9" xmlns="http://www.w3.org/2000/svg">
<path fill-rule="evenodd" clip-rule="evenodd" d="M55.6071 49.4857C62.4643 40.6738 73.1786 35 85.2143 35C85.6879 35 86.1421 35.1881 86.477 35.523C86.8119 35.8579 87 36.3121 87 36.7857C87 48.8238 81.3262 59.5357 72.5143 66.3952C72.8808 68.691 72.7448 71.039 72.1157 73.2772C71.4866 75.5153 70.3795 77.5904 68.8706 79.3591C67.3617 81.1278 65.4871 82.5481 63.376 83.522C61.265 84.4959 58.9677 85.0001 56.6429 85C56.1693 85 55.7151 84.8119 55.3802 84.477C55.0453 84.1421 54.8571 83.6879 54.8571 83.2143V73.3786C52.5427 71.5509 50.4506 69.458 48.6238 67.1429H38.7857C38.3121 67.1429 37.8579 66.9547 37.523 66.6198C37.1881 66.2849 37 65.8307 37 65.3571C36.9998 63.032 37.5041 60.7346 38.4782 58.6233C39.4522 56.512 40.8727 54.6373 42.6417 53.1284C44.4107 51.6195 46.486 50.5123 48.7245 49.8835C50.9629 49.2546 53.3112 49.1189 55.6071 49.4857ZM69.1429 47.5C67.7221 47.5 66.3594 48.0644 65.3548 49.0691C64.3501 50.0737 63.7857 51.4363 63.7857 52.8571C63.7857 54.2779 64.3501 55.6406 65.3548 56.6452C66.3594 57.6499 67.7221 58.2143 69.1429 58.2143C70.5637 58.2143 71.9263 57.6499 72.9309 56.6452C73.9356 55.6406 74.5 54.2779 74.5 52.8571C74.5 51.4363 73.9356 50.0737 72.9309 49.0691C71.9263 48.0644 70.5637 47.5 69.1429 47.5Z" fill="#36CFC9"/>
<path d="M46.1844 72.2288C46.3729 72.0881 46.5318 71.9116 46.6522 71.7095C46.7725 71.5073 46.8519 71.2834 46.8858 71.0505C46.9197 70.8176 46.9075 70.5803 46.8498 70.3522C46.792 70.124 46.69 69.9095 46.5495 69.7208C46.4089 69.5322 46.2326 69.3731 46.0306 69.2526C45.8287 69.1321 45.605 69.0527 45.3723 69.0187C45.1396 68.9848 44.9026 68.9971 44.6747 69.0548C44.4467 69.1126 44.2324 69.2147 44.0439 69.3554C42.2134 70.7183 40.7901 72.5563 39.9279 74.6705C39.0657 76.7847 38.7974 79.0946 39.1522 81.3504C39.2099 81.7261 39.3855 82.0737 39.6536 82.3429C39.9217 82.6121 40.2684 82.789 40.6436 82.8479C42.8974 83.2027 45.2053 82.9339 47.3175 82.0704C49.4297 81.207 51.2658 79.7818 52.6272 77.9492C52.7722 77.761 52.8784 77.5458 52.9396 77.3162C53.0008 77.0865 53.0157 76.847 52.9834 76.6115C52.9512 76.376 52.8724 76.1493 52.7518 75.9446C52.6311 75.7399 52.471 75.5612 52.2807 75.4191C52.0904 75.2769 51.8737 75.1741 51.6433 75.1166C51.4129 75.0591 51.1734 75.0481 50.9387 75.0841C50.704 75.1202 50.4788 75.2027 50.2763 75.3267C50.0737 75.4508 49.8978 75.6139 49.7589 75.8067C48.9268 76.9269 47.8442 77.8366 46.5978 78.4628C45.3514 79.0891 43.9758 79.4146 42.5812 79.4133C42.5812 76.4755 43.9938 73.8649 46.1844 72.2288Z" fill="#36CFC9"/>
</svg>
