<svg width="30" height="30" viewBox="0 0 30 30" fill="none" xmlns="http://www.w3.org/2000/svg">
<g clip-path="url(#clip0)">
<path d="M27.3717 5.23942C28.8229 5.23942 29.9993 4.06654 29.9993 2.61971C29.9993 1.17288 28.8229 0 27.3717 0C25.9205 0 24.7441 1.17288 24.7441 2.61971C24.7441 4.06654 25.9205 5.23942 27.3717 5.23942Z" fill="url(#paint0_linear)"/>
<path d="M27.3717 8.1615C25.921 8.1615 24.7441 9.33729 24.7441 10.7812C24.7441 12.2251 25.9235 13.4009 27.3717 13.4009C28.82 13.4009 29.9993 12.2251 29.9993 10.7812C29.9993 9.33729 28.82 8.1615 27.3717 8.1615ZM27.3717 12.4342C26.4564 12.4342 25.7138 11.6938 25.7138 10.7812C25.7138 9.86862 26.4564 9.12821 27.3717 9.12821C28.2871 9.12821 29.0297 9.86862 29.0297 10.7812C29.0297 11.6938 28.2846 12.4342 27.3717 12.4342Z" fill="url(#paint1_linear)"/>
<path d="M27.3717 16.3234C25.921 16.3234 24.7441 17.4992 24.7441 18.9431C24.7441 20.387 25.9235 21.5652 27.3717 21.5652C28.82 21.5652 29.9993 20.3895 29.9993 18.9431C29.9993 17.4967 28.82 16.3234 27.3717 16.3234ZM27.3717 20.5961C26.4564 20.5961 25.7138 19.8557 25.7138 18.9431C25.7138 18.0305 26.4564 17.2901 27.3717 17.2901C28.2871 17.2901 29.0297 18.0305 29.0297 18.9431C29.0297 19.8557 28.2846 20.5961 27.3717 20.5961Z" fill="url(#paint2_linear)"/>
<path d="M22.3542 4.4227C21.9644 3.89138 21.3575 3.61096 20.7456 3.61096C20.336 3.61096 19.9215 3.73641 19.5663 3.99715L7.38317 12.914L7.44485 8.27232C7.45718 7.31545 6.76143 6.49633 5.81155 6.3512C5.71287 6.33644 5.61418 6.32906 5.51796 6.32906C4.61742 6.32906 3.81805 6.96124 3.63301 7.86891L2.01698 15.8338C1.75792 17.1228 1.23734 18.3478 0.492245 19.4325C-0.134427 20.3451 -0.164033 21.5406 0.410827 22.4876C2.30318 25.6116 4.5064 28.0395 5.83129 29.3678C6.21864 29.7564 6.88479 29.9999 7.48432 29.9999C7.6595 29.9999 7.82727 29.9802 7.9827 29.936C11.9722 28.8045 17.331 24.8663 20.3114 22.9968C21.2612 22.4015 21.503 21.1864 20.8369 20.2836C20.4816 19.799 19.9289 19.5432 19.3689 19.5432C18.9963 19.5432 18.6189 19.6588 18.2932 19.895L18.9569 19.4104C19.8549 18.7536 20.0474 17.4942 19.3886 16.5988C18.9939 16.0626 18.382 15.7772 17.7603 15.7772C17.3458 15.7772 16.9288 15.9052 16.5686 16.1684L17.2298 15.6838C18.1377 15.0196 18.3327 13.7479 17.6665 12.8427C17.2668 12.2991 16.6475 12.0137 16.0209 12.0137C15.6015 12.0137 15.1796 12.1416 14.8169 12.4073L21.9274 7.2023C22.8156 6.55291 23.008 5.30824 22.3542 4.4227Z" fill="url(#paint3_linear)"/>
</g>
<defs>
<linearGradient id="paint0_linear" x1="27.3717" y1="0" x2="27.3717" y2="5.23942" gradientUnits="userSpaceOnUse">
<stop stop-color="#B7B7B7"/>
<stop offset="1" stop-color="#B7B7B7"/>
</linearGradient>
<linearGradient id="paint1_linear" x1="27.3717" y1="8.1615" x2="27.3717" y2="13.4009" gradientUnits="userSpaceOnUse">
<stop stop-color="#B7B7B7"/>
<stop offset="1" stop-color="#B7B7B7"/>
</linearGradient>
<linearGradient id="paint2_linear" x1="27.3717" y1="16.3234" x2="27.3717" y2="21.5652" gradientUnits="userSpaceOnUse">
<stop stop-color="#B7B7B7"/>
<stop offset="1" stop-color="#B7B7B7"/>
</linearGradient>
<linearGradient id="paint3_linear" x1="11.3711" y1="3.61096" x2="11.3711" y2="29.9999" gradientUnits="userSpaceOnUse">
<stop stop-color="#B7B7B7"/>
<stop offset="1" stop-color="#B7B7B7"/>
</linearGradient>
<clipPath id="clip0">
<rect width="30" height="30" fill="white"/>
</clipPath>
</defs>
</svg>
