<svg width="60" height="49" viewBox="0 0 60 49" fill="none" xmlns="http://www.w3.org/2000/svg">
<path d="M30 0.250002C13.43 0.250002 0 9.73703 0 21.4379C0 27.0777 3.13 32.2039 8.22 35.9997L4.375 45.646C3.85 46.9661 4.88 48.3837 6.26 48.2399C9.7 47.8803 15.515 46.4832 20.335 41.5009C23.37 42.2302 26.62 42.6309 30 42.6309C46.57 42.6309 60 33.1439 60 21.443C60 9.73703 46.57 0.250002 30 0.250002ZM15.945 16.8305C18.32 16.8305 20.25 18.808 20.25 21.253C20.25 23.6928 18.325 25.6755 15.945 25.6755C13.57 25.6755 11.64 23.6979 11.64 21.253C11.64 18.8131 13.57 16.8305 15.945 16.8305ZM29.875 25.6755C27.5 25.6755 25.57 23.6979 25.57 21.253C25.57 18.8131 27.495 16.8305 29.875 16.8305C32.255 16.8305 34.18 18.808 34.18 21.253C34.18 23.6979 32.25 25.6755 29.875 25.6755ZM43.8 25.6755C41.425 25.6755 39.495 23.6979 39.495 21.253C39.495 18.8131 41.42 16.8305 43.8 16.8305C46.175 16.8305 48.105 18.808 48.105 21.253C48.105 23.6979 46.18 25.6755 43.8 25.6755Z" fill="#B7B7B7"/>
</svg>
